/* XPM */
static char *_560cbc9b3514497f0b513108c2f9478[] = {
/* columns rows colors chars-per-pixel */
"32 32 82 1 ",
"  c #1B671A",
". c #1D6819",
"X c #256E24",
"o c #2A7224",
"O c #2C732A",
"+ c #32772C",
"@ c #357A2D",
"# c #3A7D2E",
"$ c #327731",
"% c #367934",
"& c #3C7E32",
"* c #3D7E3B",
"= c #407F40",
"- c #3F8033",
"; c #3F803C",
": c #428236",
"> c #44833D",
", c #49873E",
"< c #4A883F",
"1 c #458342",
"2 c #498741",
"3 c #4C8941",
"4 c #518C46",
"5 c #538D4B",
"6 c #56904D",
"7 c #538D51",
"8 c #5D9554",
"9 c #609655",
"0 c #62975C",
"q c #689B5F",
"w c #5F9461",
"e c #6B9D62",
"r c #6D9E6B",
"t c #6FA066",
"y c #70A167",
"u c #73A26A",
"i c #79A771",
"p c #7CA975",
"a c #7EAA7A",
"s c #83AD7A",
"d c #83AD82",
"f c #8EAF8A",
"g c #89B282",
"h c #8DB38C",
"j c #91B68D",
"k c #94B88E",
"l c #93B791",
"z c #9ABC95",
"x c #9CBE9B",
"c c #9FC099",
"v c #A1C19B",
"b c #A6C4A5",
"n c #AAC7A5",
"m c #ABC8A6",
"M c #A9C6A8",
"N c #ADC9A9",
"B c #B1CCAD",
"V c #B3CCB2",
"C c #BFD4BC",
"Z c #C1D6BD",
"A c #C5D9C4",
"S c #CAD2CC",
"D c #CCDDCC",
"F c #CFDFD0",
"G c #D0DFD1",
"H c #D2E1CF",
"J c #D4E2D4",
"K c #D9E6D7",
"L c #D9E6D9",
"P c #DEE9DD",
"I c #E0EBDF",
"U c #E4EDE3",
"Y c #E8EBEA",
"T c #E8F0E7",
"R c #ECF2EB",
"E c #F0F5EF",
"W c #EBE7F1",
"Q c #EDEDF0",
"! c #F2F6F1",
"~ c #F6F9F6",
"^ c #FFFFFF",
"/ c None",
/* pixels */
"/////////////^^^^^^/////////////",
"///////////^PZnvvnZP^///////////",
"////////^Rme,&---&&,enR^////////",
"///////^m4#><33<<33<,#4n^///////",
"//////Ty#,333>:23,>,33<#yT//////",
"/////U5:3333:NH9#kHu:333:5U/////",
"////R5:33332oF^8.b^p&<33<:5R////",
"///^t:3333,O=L^LHT^c::3333-t^///",
"//^N#3333>%x~^^^^^^^Ii:<333#N^//",
"//E42333>=F^^^EJDJ~^^^v>333<4E//",
"//N#3331%J^^Ta1%O$1l~^m:3333#N//",
"/^t>333Ox^^J>O****%owv:<33<3>e^/",
"/I,<33%1~^E3%1*;**%*&:<33333<,I/",
"^Z&3<*Xd^^z+>>>++%**->3<33<33-Z^",
"^m&2*%OV^^0->>>lxr+8Ns:333333&m^",
"^v->**OA^~5>1>1~^xy~^v-<3333<-v^",
"^c%*;*+A^~5>2>2T^A~^~k:333333-v^",
"^b$>>*OV^^q>2>2E^^^h5433<3333-n^",
"^C$>1*Oh^^v#2>2T^^do><33333<<-Z^",
"/I>>>>*7^^E6:23R^I&3::333333<,I/",
"/^e&>>>+V^^K3#<T^B@#gg:33333>t^/",
"//N@2>>*>Y^^Yp<SWf4N^^s:3333#m//",
"//E3>,>>%7U^^^TYQY~^^Ei:333<4E//",
"//^N@22>>&>V^^^^^^^^A8:3323#N^//",
"///^t-,2>1*+7P^PLT^h@>3333:y^///",
"////R5:22>>>oJ^7 M^p:3333:5R////",
"/////U5&,>>>%nD7OhDu:<33:5U/////",
"//////Tt#>2>>*%**$&<3<<#yT//////",
"///////^n3&*>>>>*>33>#4m^///////",
"////////^Rnq>@+@%-:,enR^////////",
"///////////^PCbxvnZP^///////////",
"/////////////^^^^^^/////////////"
};
