/* XPM */
static char *d232a1c702ea48bc806fa56bd0b37391[] = {
/* columns rows colors chars-per-pixel */
"64 64 99 2 ",
"   c #1B661B",
".  c #1F691F",
"X  c #276F27",
"o  c #276F28",
"O  c #286F28",
"+  c #287024",
"@  c #2C732B",
"#  c #31762D",
"$  c #35792E",
"%  c #3A7D2F",
"&  c #317531",
"*  c #357933",
"=  c #3B7E33",
"-  c #377A38",
";  c #3C7D3A",
":  c #3F8033",
">  c #3F803C",
",  c #418236",
"<  c #44833D",
"1  c #48863E",
"2  c #4A883F",
"3  c #448342",
"4  c #498740",
"5  c #4C8941",
"6  c #4A864A",
"7  c #4E894C",
"8  c #518C47",
"9  c #538D4A",
"0  c #57914D",
"q  c #568F52",
"w  c #588F58",
"e  c #5C9353",
"r  c #5B925B",
"t  c #619757",
"y  c #62975A",
"u  c #65995B",
"i  c #689B5F",
"p  c #639760",
"a  c #679A65",
"s  c #6B9E63",
"d  c #6D9E6A",
"f  c #6FA066",
"g  c #6FA06F",
"h  c #74A36C",
"j  c #74A372",
"k  c #78A577",
"l  c #7EAA76",
"z  c #7BA77B",
"x  c #7EA97B",
"c  c #82AD7B",
"v  c #87B07F",
"b  c #84AD84",
"n  c #87B080",
"m  c #89B282",
"M  c #8FB58B",
"N  c #91B78A",
"B  c #95B98E",
"V  c #91B690",
"C  c #96BA92",
"Z  c #9CBD96",
"A  c #9DBE9B",
"S  c #A2C29D",
"D  c #A5C4A4",
"F  c #A9C6A7",
"G  c #A9C6A9",
"H  c #ADC9AB",
"J  c #B2CCAF",
"K  c #B5CEB2",
"L  c #B8CFB8",
"P  c #B9D1B5",
"I  c #BDD3BB",
"U  c #BFCAC2",
"Y  c #C3D7C3",
"T  c #C6D9C3",
"R  c #C9DCC6",
"E  c #C9D1CC",
"W  c #CCDDC9",
"Q  c #D1D4D6",
"!  c #D5DFD5",
"~  c #D3D5DA",
"^  c #D7D8DC",
"/  c #D9DADF",
"(  c #D1E0CD",
")  c #D4E2D2",
"_  c #D8E5D6",
"`  c #DAE6DA",
"'  c #DEE9DD",
"]  c #E0EBDE",
"[  c #DDDCE2",
"{  c #E4EDE3",
"}  c #EAECEC",
"|  c #E8F0E7",
" . c #ECF3EC",
".. c #EEEEF0",
"X. c #F2F6F2",
"o. c #F6F9F6",
"O. c #F8FAF7",
"+. c #FFFFFF",
"@. c None",
/* pixels */
"@.@.@.@.@.@.@.@.@.@.@.@.@.@.@.@.@.@.@.@.@.@.@.@.@.@.@.@.+.+.+.+.+.+.+.+.@.@.@.@.@.@.@.@.@.@.@.@.@.@.@.@.@.@.@.@.@.@.@.@.@.@.@.@.",
"@.@.@.@.@.@.@.@.@.@.@.@.@.@.@.@.@.@.@.@.@.@.@.@.+.+.+.+.+.+.+.+.+.+.+.+.+.+.+.+.@.@.@.@.@.@.@.@.@.@.@.@.@.@.@.@.@.@.@.@.@.@.@.@.",
"@.@.@.@.@.@.@.@.@.@.@.@.@.@.@.@.@.@.@.@.@.+.+.+.+.+.{ W K S B N N B S J R { +.+.+.+.+.@.@.@.@.@.@.@.@.@.@.@.@.@.@.@.@.@.@.@.@.@.",
"@.@.@.@.@.@.@.@.@.@.@.@.@.@.@.@.@.@.@.+.+.+.| P v t 5 , : = : : : : % , , 5 t v P | +.+.+.@.@.@.@.@.@.@.@.@.@.@.@.@.@.@.@.@.@.@.",
"@.@.@.@.@.@.@.@.@.@.@.@.@.@.@.@.@.+.+.+.T l 8 : : 1 2 5 5 5 5 5 5 5 5 5 5 2 1 , = 8 c T +.+.+.@.@.@.@.@.@.@.@.@.@.@.@.@.@.@.@.@.",
"@.@.@.@.@.@.@.@.@.@.@.@.@.@.@.+.+.+.P i : : 1 5 5 2 2 5 5 5 5 5 5 5 5 5 5 5 5 2 5 2 : : i P +.+.+.@.@.@.@.@.@.@.@.@.@.@.@.@.@.@.",
"@.@.@.@.@.@.@.@.@.@.@.@.@.+.+.+.( f : , 5 5 5 5 5 5 5 5 5 5 5 5 5 5 5 5 5 5 5 5 5 5 5 5 , = s ( +.+.+.@.@.@.@.@.@.@.@.@.@.@.@.@.",
"@.@.@.@.@.@.@.@.@.@.@.@.+.+.O.N , , 5 5 5 5 5 5 5 5 5 5 5 5 5 5 2 5 5 5 5 5 5 5 5 5 5 5 5 5 , , N O.+.+.@.@.@.@.@.@.@.@.@.@.@.@.",
"@.@.@.@.@.@.@.@.@.@.@.+.+.' u % 5 5 5 5 5 5 5 5 5 5 5 5 2 2 5 5 5 5 5 2 2 2 5 5 5 5 5 5 5 5 5 2 % u ' +.+.@.@.@.@.@.@.@.@.@.@.@.",
"@.@.@.@.@.@.@.@.@.@.+.+.T 5 , 5 5 5 5 5 5 5 5 5 5 5 2 1 1 2 2 2 5 5 5 1 1 1 2 5 5 5 5 5 5 5 5 5 5 , 2 T +.+.@.@.@.@.@.@.@.@.@.@.",
"@.@.@.@.@.@.@.@.@.+.+.P , 1 5 5 5 5 5 5 5 5 5 5 5 : C ] ] ] f 1 2 1 0 _ ] ' J < 5 5 5 5 5 5 5 5 5 5 1 , P +.+.@.@.@.@.@.@.@.@.@.",
"@.@.@.@.@.@.@.@.+.+.P : 1 5 5 5 5 5 5 5 5 5 5 5 5 @ F +.+.+.h , 5 < 6 +.+.+.( , 5 5 5 5 5 5 5 5 5 5 5 1 : P +.+.@.@.@.@.@.@.@.@.",
"@.@.@.@.@.@.@.+.+.T , 1 5 5 5 5 5 5 5 5 5 5 5 5 ; X D +.+.+.h , < # 6 o.+.+.R , 5 5 5 5 5 5 5 5 5 5 5 5 1 , T +.+.@.@.@.@.@.@.@.",
"@.@.@.@.@.@.+.+.] 2 1 5 5 5 5 5 5 5 5 5 5 5 5 ; - @ D +.+.+.f * - & 6 o.+.+.R , 5 5 5 5 5 5 5 5 5 5 5 5 2 1 5 ] +.+.@.@.@.@.@.@.",
"@.@.@.@.@.@.+.O.u , 5 5 5 5 5 5 5 5 5 5 5 5 ; - &   D +.+.+.' ` { ' ' +.+.+.R % , 2 2 5 5 5 5 5 5 5 5 5 5 5 , u O.+.@.@.@.@.@.@.",
"@.@.@.@.@.+.+.B % 5 5 5 5 5 5 5 5 5 5 5 5 ; & @ w G  .+.+.+.+.+.+.+.+.+.+.+.O.R l < , 5 5 5 5 5 5 5 5 5 5 5 5 = B +.+.@.@.@.@.@.",
"@.@.@.@.@.+.) , 5 5 5 5 5 5 5 5 5 5 8 2 ; O 7 L +.+.+.+.+.+.+.+.+.+.+.+.+.+.+.+.+.) f : 2 2 2 2 5 5 5 5 5 5 5 2 , ) +.@.@.@.@.@.",
"@.@.@.@.+.+.s , 5 5 5 5 5 5 5 5 5 5 5 - O b X.+.+.+.+.+.+.+.+.+.+.+.+.+.+.+.+.+.+.+.+.S , , 8 8 5 5 5 5 5 5 5 5 , s +.+.@.@.@.@.",
"@.@.@.@.+.I = 2 5 5 5 5 5 5 5 5 5 5 - @ F +.+.+.+.+.+.+.+.+.+.+.+.+.+.+.+.+.+.+.+.+.+.+.R 8 2 2 5 5 5 5 5 5 5 5 5 , I +.@.@.@.@.",
"@.@.@.+.+.i , 5 5 5 5 5 5 5 5 5 5 - # L +.+.+.+.+.+.+.+.{ J M k g g z C Y  .+.+.+.+.+.+.+._ 2 2 5 5 5 5 5 5 5 5 5 , i +.+.@.@.@.",
"@.@.@.+.R : 2 2 5 5 5 5 5 5 5 5 ; o H +.+.+.+.+.+.+.Y d ; # # # # & @ O @ 3 b { +.+.+.+.+.H , 2 5 5 5 5 5 5 5 5 5 5 , R +.@.@.@.",
"@.@.+.+.c , 5 5 5 5 5 5 5 5 5 ; o b +.+.+.+.+.+. .j # * ; ; ; ; ; ; ; ; - - o ; F +.+.+.J : 2 2 5 5 5 5 5 5 5 5 5 2 , c +.+.@.@.",
"@.@.+. .8 2 5 5 5 5 5 5 5 5 ; & 7 o.+.+.+.+.+.` 7 # < ; > ; ; ; ; ; ; - ; - - * X z O.T , 2 5 5 5 5 5 5 5 5 5 5 5 5 1 5  .+.@.@.",
"@.@.+.P % 5 5 5 5 5 5 5 5 > - O L +.+.+.+.+.' 4 * < > < ; < ; < > ; ; ; ; ; ; ; - O i 9 1 5 5 5 5 5 5 5 5 5 5 5 5 5 5 : P +.@.@.",
"@.+.+.m : 2 5 5 5 5 5 5 > - & w +.+.+.+.+.o.q % < < > < < ; ; ; > ; ; ; ; ; ; ; * > < 1 8 2 5 5 5 5 5 5 5 5 5 5 5 5 2 , v +.+.@.",
"@.+.+.y 1 5 5 5 5 5 2 > - - O F +.+.+.+.+.C # < < < 3 ; < ; < ; > > ; ; ; ; ; - < 2 2 5 2 2 5 5 5 5 5 5 5 5 5 5 5 5 2 1 y +.+.@.",
"@.+.{ 5 2 5 5 5 5 2 > - ; - - { +.+.+.+.| < < 4 < < < < ; < < < > > > > ; ; - > 2 8 5 2 5 5 5 5 5 5 5 5 5 5 5 5 5 5 5 2 5 { +.@.",
"@.+.W , 5 5 5 5 5 < - - - & r +.+.+.+.+.S $ < < 3 < < > < < - - ; - = ; ; ; < 5 2 , , 2 5 5 5 5 5 5 5 5 5 5 5 5 5 5 5 5 , W +.@.",
"+.+.K : 2 2 5 5 > - ; - - @ b +.+.+.+.+.d : < < < < < < < < 7 7 7 7 7 < ; < 2 : 5 h N 8 1 5 5 5 5 5 5 5 5 5 5 5 5 5 5 5 : K +.+.",
"+.+.S % 5 5 5 ; ; ; - ; - @ D +.+.+.+.X.8 < 4 < < < < < ; < ` o.O.o. .7 > < < N ] +.+.e 1 5 5 5 5 5 5 5 5 5 5 5 5 5 5 5 : S +.+.",
"+.+.C : 5 5 < ; ; ; ; ; ; @ L +.+.+.+.] < 1 < < 4 < < < < < { +.+.+.O.q % e ( +.+.+.o.e 1 2 5 5 5 5 5 5 5 5 5 5 5 5 5 5 : B +.+.",
"+.+.N , 5 < ; < ; ; ; ; - & Y +.+.+.+._ < 1 < 1 4 < 3 < < < { +.+.+.O.8 e | +.+.+.+.o.e 1 2 5 5 5 5 5 5 5 5 5 5 5 5 5 5 : N +.+.",
"+.+.N : 3 > > > < ; ; ; ; @ Y +.+.+.+._ < 1 4 < 4 < 4 < < < { +.+.+.X.e ] +.+.+.+.+.O.e 2 5 5 5 5 5 5 5 5 5 5 5 5 5 5 5 : N +.+.",
"+.+.C % < < > > ; ; < ; ; # I +.+.+.+.{ 1 1 4 1 4 5 < < < < { +.+.+. .R +.+.+.+.+.+.X.e 1 5 5 5 5 5 5 5 5 5 5 5 5 5 5 5 : B +.+.",
"+.+.A $ < < > < 3 ; ; ; ; @ F +.+.+.+.o.0 1 4 4 < 5 1 < < < { +.+.+.+.+.+.+.+.L k q 9 8 2 5 5 5 5 5 5 5 5 5 5 5 5 5 5 5 = S +.+.",
"+.+.J & < < < > ; < < ; ; # V +.+.+.+.+.h : 4 2 5 < < < < 1 { +.+.+.+.+.+.X.f # # : 2 5 2 5 5 5 5 5 5 5 5 5 5 5 5 5 5 2 : K +.+.",
"@.+.R % < < < < 3 ; > ; ; & d +.+.+.+.+.J % 5 1 4 4 < 5 < 1 { +.+.+.+.+.O.a # > 1 2 5 5 5 5 5 5 5 5 5 5 5 5 5 5 5 5 5 2 , R +.@.",
"@.+.{ 4 < < < < < < < < < ; 4 X.+.+.+.+. .8 1 1 4 4 5 < < 4 { +.+.+.+.+.A # < < 5 5 5 5 2 5 5 5 5 5 5 5 5 5 5 5 5 5 5 1 5 | +.@.",
"@.+.+.r > < 3 < 3 > > < > ; # I +.+.+.+.+.S % 5 5 4 4 4 < 1 { +.+.+.+. .4 : < 5 5 5 5 5 5 5 5 5 5 5 5 5 5 5 5 5 5 5 5 1 t +.+.@.",
"@.+.+.v % 4 < < < < < > > < # j +.+.+.+.+.O.i = 5 2 4 4 < < { +.+.+.+.K # 2 5 5 2 2 1 5 5 5 5 5 5 5 5 5 5 5 5 5 5 5 5 : m +.+.@.",
"@.@.+.P % 4 < < < < < < < > ; - _ +.+.+.+.+.{ 8 , 5 5 4 < 4 { +.+.+.+.c = 5 5 5 1 5 t , 2 5 5 5 5 5 5 5 5 5 5 5 5 5 5 : P +.@.@.",
"@.@.+. .5 < 4 4 3 < < < > < < * d +.+.+.+.+.+.' 0 : 5 2 < 5 { +.+.+.+.s , 8 5 , 5 R o.i , 5 5 5 5 5 5 5 5 5 5 5 5 5 2 5  .+.@.@.",
"@.@.+.+.c = < 4 4 < 4 < < < ; ; # J +.+.+.+.+.+.| h % , 2 5 ! X.....} e 1 , = f ] +.+. .u , 5 5 5 5 5 5 5 5 5 5 5 5 , c +.+.@.@.",
"@.@.@.+.R = < 4 < 4 < < 3 < < < ; ; ) +.+.+.+.+.+.+.K y : % U [ ^ / Q 4 % t K +.+.+.+.+. .i 1 2 5 5 5 5 5 5 5 5 5 2 : R +.@.@.@.",
"@.@.@.+.+.i ; 1 < 4 4 < < < < < < * 6 ] +.+.+.+.+.+.+.+.W Z E ~ Q ~ ~ S W +.+.+.+.+.+.+.+.l 1 2 5 5 5 5 5 5 5 5 5 , i +.+.@.@.@.",
"@.@.@.@.+.I % 1 1 5 < 4 < 3 < < < < * 4 ) +.+.+.+.+.+.+.+.+.+.+.+.+.+.+.+.+.+.+.+.+.+.o.h : 5 5 5 5 5 5 5 5 5 5 5 = I +.@.@.@.@.",
"@.@.@.@.+.+.s , 4 < < 4 4 < < < < > < * ; J +.+.+.+.+.+.+.+.+.+.+.+.+.+.+.+.+.+.+.+.) t : 5 5 5 5 5 5 5 5 5 5 2 , f +.+.@.@.@.@.",
"@.@.@.@.@.+.( , 1 4 4 < 4 4 < 3 < < < < ; # j ` +.+.+.+.+.+.+.+.+.+.+.+.+.+.+.+.X.C < , 5 5 5 5 5 5 5 5 5 5 5 2 , ) +.@.@.@.@.@.",
"@.@.@.@.@.+.+.B % 5 4 < 5 < 4 < < 4 < < ; < & ; c R O.+.+.+.+.+.+.+.+.+.+.+.X.A 6 % 2 5 5 5 5 5 5 5 5 5 5 5 5 = B +.+.@.@.@.@.@.",
"@.@.@.@.@.@.+.O.i : 5 1 < 5 4 < < 4 < < < > < > & + H +.+.+.{ | | { ' +.+.+.Y . , 8 5 5 5 5 5 5 5 5 5 5 2 5 , u O.+.@.@.@.@.@.@.",
"@.@.@.@.@.@.+.+.' 5 < 1 5 < 4 < < < < < < < > > < @ D +.+.+.a & 3 - 6 o.+.+.T = 5 5 5 5 2 5 5 5 5 5 2 5 5 1 5 ] +.+.@.@.@.@.@.@.",
"@.@.@.@.@.@.@.+.+.R , 1 5 5 1 4 4 < 3 4 3 > < > > # F +.+.+.a & - & 7 o.+.+.T , 5 5 5 5 5 5 5 5 5 5 5 5 1 , R +.+.@.@.@.@.@.@.@.",
"@.@.@.@.@.@.@.@.+.+.P ; < 2 < 2 1 4 < < < < < < < # H +.+.+.d & ; * 7 +.+.+.( , 5 5 5 5 5 5 5 5 5 5 2 1 , P +.+.@.@.@.@.@.@.@.@.",
"@.@.@.@.@.@.@.@.@.+.+.P , 1 5 5 1 1 4 < < 3 < < > $ C ' ` ' u & ; * 6 ) ` ` J 1 5 5 5 5 5 5 5 5 5 5 1 , P +.+.@.@.@.@.@.@.@.@.@.",
"@.@.@.@.@.@.@.@.@.@.+.+.R 5 : 5 4 1 4 < 4 < 1 < < < ; ; ; ; ; > > ; ; - * - 1 5 5 5 5 5 5 5 5 5 5 , 2 T +.+.@.@.@.@.@.@.@.@.@.@.",
"@.@.@.@.@.@.@.@.@.@.@.+.+.' u % 1 4 1 1 3 4 < < < < < > > > > > > ; ; - ; 1 5 5 5 5 5 5 5 5 5 2 = i ] +.+.@.@.@.@.@.@.@.@.@.@.@.",
"@.@.@.@.@.@.@.@.@.@.@.@.+.+.O.B , , 4 < 1 1 3 < < < < < < > > > > ; ; > 4 5 5 5 5 5 5 5 5 5 , , B O.+.+.@.@.@.@.@.@.@.@.@.@.@.@.",
"@.@.@.@.@.@.@.@.@.@.@.@.@.+.+.+.W s % < 1 1 4 < < 3 < < < > < > > > ; 5 5 5 5 5 5 5 5 5 , = d W +.+.+.@.@.@.@.@.@.@.@.@.@.@.@.@.",
"@.@.@.@.@.@.@.@.@.@.@.@.@.@.@.+.+.+.P i = = < 4 4 < < < < > > > > > 5 5 5 5 5 5 5 1 , : i P +.+.+.@.@.@.@.@.@.@.@.@.@.@.@.@.@.@.",
"@.@.@.@.@.@.@.@.@.@.@.@.@.@.@.@.@.+.+.+.T l 5 % = > < < < < < < < 5 5 5 5 2 < , : 5 c T +.+.+.@.@.@.@.@.@.@.@.@.@.@.@.@.@.@.@.@.",
"@.@.@.@.@.@.@.@.@.@.@.@.@.@.@.@.@.@.@.+.+.+. .K v r 1 = $ $ $ $ % , = : , 5 y v P | +.+.+.@.@.@.@.@.@.@.@.@.@.@.@.@.@.@.@.@.@.@.",
"@.@.@.@.@.@.@.@.@.@.@.@.@.@.@.@.@.@.@.@.@.+.+.+.+.O.{ R J A V M N B S K R | +.+.+.+.+.@.@.@.@.@.@.@.@.@.@.@.@.@.@.@.@.@.@.@.@.@.",
"@.@.@.@.@.@.@.@.@.@.@.@.@.@.@.@.@.@.@.@.@.@.@.@.+.+.+.+.+.+.+.+.+.+.+.+.+.+.+.+.@.@.@.@.@.@.@.@.@.@.@.@.@.@.@.@.@.@.@.@.@.@.@.@.",
"@.@.@.@.@.@.@.@.@.@.@.@.@.@.@.@.@.@.@.@.@.@.@.@.@.@.@.@.+.+.+.+.+.+.+.+.@.@.@.@.@.@.@.@.@.@.@.@.@.@.@.@.@.@.@.@.@.@.@.@.@.@.@.@."
};
