/* XPM */
static char *_1476576eb924cf9c490af3319f15eeb[] = {
/* columns rows colors chars-per-pixel */
"16 16 137 2 ",
"   c #1F6B13",
".  c #276F24",
"X  c #287022",
"o  c #287122",
"O  c #2D7421",
"+  c #2F7522",
"@  c #2F7625",
"#  c #307627",
"$  c #327826",
"%  c #33782B",
"&  c #33782C",
"*  c #33782E",
"=  c #367A2C",
"-  c #367A2D",
";  c #34782E",
":  c #397C2C",
">  c #3A7D2D",
",  c #397C2E",
"<  c #3A7D2E",
"1  c #337731",
"2  c #357933",
"3  c #377A34",
"4  c #387B33",
"5  c #3B7D30",
"6  c #3C7E30",
"7  c #3D7F31",
"8  c #3C7E32",
"9  c #3D7E35",
"0  c #3D7F37",
"q  c #3B7C3B",
"w  c #3C7D3B",
"e  c #3E7E3C",
"r  c #3E8032",
"t  c #438337",
"y  c #45853B",
"u  c #44833C",
"i  c #47863C",
"p  c #48863D",
"a  c #48873D",
"s  c #49873D",
"d  c #4A873E",
"f  c #4A883F",
"g  c #4B883F",
"h  c #448340",
"j  c #448342",
"k  c #4B8940",
"l  c #4C8940",
"z  c #4C8941",
"x  c #4D8942",
"c  c #4D8A44",
"v  c #4E8A44",
"b  c #4D8948",
"n  c #508C45",
"m  c #508C46",
"M  c #528D47",
"N  c #508B4B",
"B  c #518C48",
"V  c #538E49",
"C  c #548E49",
"Z  c #528C4E",
"A  c #56904C",
"S  c #57904F",
"D  c #59914E",
"F  c #558E50",
"G  c #5B9351",
"H  c #599152",
"J  c #5C9453",
"K  c #5D9453",
"L  c #5D9454",
"P  c #5E9554",
"I  c #5E9556",
"U  c #5D935E",
"Y  c #609656",
"T  c #619756",
"R  c #64985D",
"E  c #679B5E",
"W  c #689B5E",
"Q  c #629760",
"!  c #679A61",
"~  c #669966",
"^  c #699C60",
"/  c #6C9E63",
"(  c #6D9F63",
")  c #74A46B",
"_  c #84AE7F",
"`  c #87AF83",
"'  c #85AE85",
"]  c #8BB384",
"[  c #88B087",
"{  c #89B088",
"}  c #8CB389",
"|  c #91B68B",
" . c #92B78C",
".. c #93B78C",
"X. c #93B88C",
"o. c #94B88E",
"O. c #95B98F",
"+. c #96BA8F",
"@. c #96B993",
"#. c #96B994",
"$. c #96B997",
"%. c #99B895",
"&. c #98BB97",
"*. c #9ABD95",
"=. c #9DBE99",
"-. c #A1C19E",
";. c #A7C5A1",
":. c #ACC8A9",
">. c #AFCAAB",
",. c #B3CDAF",
"<. c #B5CEB0",
"1. c #B5CEB1",
"2. c #BAD2B5",
"3. c #C2D7BE",
"4. c #CADCC8",
"5. c #CEDFCB",
"6. c #CDD9CE",
"7. c #CEDECD",
"8. c #D1E1CE",
"9. c #D7E4D7",
"0. c #D9E6D6",
"q. c #DCE8DA",
"w. c #DDE8DB",
"e. c #E3EDE2",
"r. c #E4EDE2",
"t. c #E5EEE3",
"y. c #E6EEE4",
"u. c #E6EFE4",
"i. c #E7EFE7",
"p. c #FBFCFC",
"a. c #FCFDFC",
"s. c #FDFDFC",
"d. c #FDFEFE",
"f. c #FEFEFF",
"g. c #FFFEFF",
"h. c gray100",
"j. c None",
/* pixels */
"j.j.j.j.j.j.a.r.r.a.j.j.j.j.j.j.",
"j.j.j.j.q.X./ D G / ..q.j.j.j.j.",
"j.j.j.,.C < A I z Y < V ,.j.j.j.",
"j.j.<.6 g # ' 8.&.5.+ p 6 <.j.j.",
"j.q.m z 6 { p.a.a.a.3.m i m q.j.",
"j.O.6 6 { a.@.j e ~ 0.T p 6 O.j.",
"a.( y q a.;.. 2 2 . % p z p ( a.",
"u.J 2 U a.L % ` :.o.2.t z z J u.",
"u.F 4 Q a.I # =.a.i._ t z z J u.",
"a.~ r j a.;.  *.a.0 $ z z p ( a.",
"j.O.& & %.a.} %.6.) q.m g 6 +.j.",
"j.q.c y 2 %.a.a.a.a.>.z p m q.j.",
"j.j.<.< u X } 5.#.4.+ p 6 <.j.j.",
"j.j.j.,.V & b N e I < C <.j.j.j.",
"j.j.j.j.w...R N S W O.q.j.j.j.j.",
"j.j.j.j.j.j.a.r.u.a.j.j.j.j.j.j."
};
